<?xml version="1.0" encoding="utf-8"?>
<!-- Generator: Adobe Illustrator 26.5.0, SVG Export Plug-In . SVG Version: 6.00 Build 0)  -->
<svg version="1.1" id="Camada_1" xmlns="http://www.w3.org/2000/svg" xmlns:xlink="http://www.w3.org/1999/xlink" x="0px" y="0px"
	 viewBox="0 0 276 276" style="enable-background:new 0 0 276 276;" xml:space="preserve">
<style type="text/css">
	.st0{fill:#2B4748;}
	.st1{fill:#D3D800;}
	.st2{fill:#FFFFFF;}
	.st3{fill:#C3C800;}
	.st4{fill:#00A583;}
</style>
<g>
	<g>
		<path class="st0" d="M37.1,208.3c0-4.5,0-7.2,0-8.9h7.4c0.2,1.4,0.2,2.9,0.2,4.3c0.9-2.9,3.6-5,6.7-4.6v8.3
			c-4.5-0.2-6.5,1-6.5,5.7v12.7h-7.7V208.3z"/>
		<path class="st0" d="M59.8,214.3c0,3.4,0.3,6,2.8,6s2.4-1.7,2.6-2.9h7.2c-0.2,1.7-1,8.8-10,8.8c-8.8,0-10.1-6.7-10.1-13.8
			c0-8.9,3.6-13.4,10.3-13.4c7.7,0,10,5.3,10,12.6c0,0.9,0,2.4,0,2.9L59.8,214.3z M65,209.5c0-2.6-0.2-5-2.6-5c-2.4,0-2.6,2.6-2.6,5
			H65z"/>
		<path class="st0" d="M94.2,216.2c-0.2,3.8-1.4,9.8-9.8,9.8c-8.1,0-10-5.8-10-13.8s2.9-13.4,10.3-13.4c8.6,0,9.5,6.7,9.5,9.6h-7.6
			c0-1.9-0.2-3.8-2.1-3.8c-1.9,0-2.4,1.9-2.4,7.7s0.5,8.1,2.4,8.1c1.9,0,2.2-1.9,2.4-4.1L94.2,216.2z"/>
		<path class="st0" d="M96.5,199.3h7.6v26.3h-7.6V199.3z M96.5,190.2h7.6v6.2h-7.6V190.2z"/>
		<path class="st0" d="M126.6,216.2c0,3.8-1.4,9.8-9.8,9.8c-8.1,0-10-5.8-10-13.8s2.9-13.4,10.3-13.4c8.6,0,9.5,6.7,9.5,9.6H119
			c0-1.9-0.2-3.8-2.1-3.8c-1.9,0-2.4,1.9-2.4,7.7s0.5,7.9,2.4,7.9c1.9,0,2.2-1.9,2.4-4.1L126.6,216.2z"/>
		<path class="st0" d="M128.8,225.6v-35.4h7.6v35.4C136.4,225.6,128.8,225.6,128.8,225.6z"/>
		<path class="st0" d="M158.6,219.1c0,1.7,0.2,5.2,0.2,6.5h-6.9c-0.2-0.7-0.3-1.5-0.3-2.2c-1.4,1.9-3.6,2.9-5.8,2.8
			c-4.6,0-7.1-3.6-7.1-8.1c0-5.7,3.8-8.6,10.3-8.6c0.7,0,1.5,0,2.1,0v-2.6c0-1.4-0.2-2.6-2.1-2.6c-1.9,0-2.1,1-2.1,2.9h-7.2
			c0.2-4.6,2.4-8.3,9.6-8.3c6.2,0,9.3,2.4,9.3,7.9L158.6,219.1z M151.2,214.1c-0.5,0-1,0-1.5,0c-2.6,0-3.4,1.4-3.4,3.1
			c0,1.7,0.7,2.9,2.2,2.9c2.2,0,2.8-1.7,2.8-4.6V214.1z"/>
		<path class="st0" d="M181.8,223.2c0,7.6-2.2,11.9-10.7,11.9c-7.6,0-9.5-4.1-9.6-7.7h7.6c0.2,0.9,0.3,2.2,2.6,2.2s2.8-1.7,2.8-5.3
			v-1.7c-1,1.9-3.3,3.1-5.3,2.9c-5.5,0-7.6-4.8-7.6-12.7c0-9.1,2.9-13.6,8.3-13.6c3.1,0,4.5,1.4,5,2.6c0-0.7,0.2-1.5,0.3-2.1h7.4
			c0,1.5-0.2,4.5-0.2,8.3L181.8,223.2z M169.1,212.2c0,5.2,0.9,6.9,2.8,6.9c2.2,0,2.6-2.1,2.6-7.6c0-4.6,0-6.7-2.6-6.7
			C169.9,205,169.1,206.7,169.1,212.2L169.1,212.2z"/>
		<path class="st0" d="M192.1,214.3c0,3.4,0.3,6,2.8,6s2.4-1.7,2.6-2.9h7.4c-0.2,1.7-1,8.8-10,8.8c-8.8,0-10.1-6.7-10.1-13.8
			c0-8.9,3.6-13.4,10.3-13.4c7.7,0,10,5.3,10,12.6c0,0.9,0,2.4,0,2.9L192.1,214.3z M197.3,209.5c0-2.6-0.2-5-2.4-5s-2.8,2.6-2.8,5
			H197.3z"/>
		<path class="st0" d="M207.4,207.4c0-5.2,0-7.1,0-8.1h7.2c0.2,0.9,0.2,1.5,0.2,2.4c1.2-1.9,3.4-2.9,5.7-2.9c2.2-0.2,4.5,1,5.3,3.3
			c1.4-2.1,3.8-3.3,6.4-3.3c4.1,0,6.7,2.6,6.7,7.9v18.9h-7.6v-18.1c0-1.5-0.5-2.8-2.1-2.8c-1.5,0-2.4,1.2-2.4,3.8v16.9h-7.6v-17.9
			c0-1.9-0.7-2.8-2.1-2.8c-1.7,0-2.4,1.2-2.4,4v16.9h-7.6L207.4,207.4z"/>
	</g>
	<g>
		<path class="st1" d="M66.5,169.4c0-5,0-6.5,0-7.7h5c0.2,1,0.2,1.9,0.2,2.9c1-2.1,3.3-3.4,5.7-3.3c2.4-0.2,4.6,1.2,5.3,3.6
			c1.2-2.4,3.6-3.8,6.4-3.6c3.4,0,6.4,1.7,6.4,7.6v18.6h-5.2v-17.7c0-2.2-0.7-4-3.1-4c-2.8,0-3.6,2.2-3.6,5.5v16.3h-5.2v-17.7
			c0-2.6-0.9-4-3.1-4c-2.6,0-3.6,2.1-3.6,5.7v16.2h-5.2L66.5,169.4z"/>
		<path class="st1" d="M115.7,182.3c0,1.4,0.2,4.3,0.2,5.3h-4.6c-0.2-0.9-0.2-1.7-0.2-2.6c-1.2,2.1-3.4,3.3-5.8,3.1
			c-5,0-6.9-4-6.9-7.6c0-5.2,3.4-8.4,10.1-8.4c0.7,0,1.5,0,2.2,0v-3.1c0-1.7-0.2-3.6-3.1-3.6c-2.9,0-3.3,2.1-3.3,3.6h-5.2
			c0.2-3.8,1.9-7.7,8.4-7.7c5.3,0,8.1,2.4,8.1,7.4C115.7,168.7,115.7,182.3,115.7,182.3z M110.7,175.9c-0.7-0.2-1.4-0.2-2.1-0.2
			c-3.8,0-5.2,1.7-5.2,4.1c-0.2,1.9,1,3.4,2.9,3.8c0.2,0,0.3,0,0.3,0c3.3,0,4.1-2.4,4.1-6.7L110.7,175.9z"/>
		<path class="st1" d="M125.5,185.2v11.5h-5.2v-27.5c0-3.4,0-5.8,0-7.4h5c0.2,1,0.2,2.1,0.2,3.1c1-2.2,3.4-3.6,5.8-3.4
			c4.8,0,7.6,4.1,7.6,12.9c0,9.8-3.3,13.8-8.3,13.8C128.5,188.1,126.6,187.1,125.5,185.2z M133.6,174.4c0-6.4-1.4-8.6-4.1-8.6
			c-3.3,0-4.1,3.1-4.1,8.6c0,6,0.3,9.1,4,9.1C132.2,183.5,133.6,180.4,133.6,174.4z"/>
		<path class="st1" d="M158.4,182.3c0,1.4,0.2,4.3,0.2,5.3h-4.8c-0.2-0.9-0.2-1.7-0.2-2.6c-1.2,2.1-3.4,3.3-5.8,3.1
			c-5,0-6.9-4-6.9-7.6c0-5.2,3.4-8.4,10.1-8.4c0.7,0,1.5,0,2.2,0v-3.1c0-1.7-0.2-3.6-3.1-3.6c-2.9,0-3.3,2.1-3.3,3.6h-5
			c0-3.8,1.9-7.7,8.4-7.7c5.3,0,8.1,2.4,8.1,7.4L158.4,182.3z M153.4,175.9c-0.7-0.2-1.4-0.2-2.1-0.2c-3.8,0-5.2,1.7-5.2,4.1
			c-0.2,1.9,1,3.4,2.9,3.8c0.2,0,0.2,0,0.3,0c3.3,0,4.1-2.4,4.1-6.7L153.4,175.9z"/>
		<path class="st2" d="M188.7,151.8v28.6c0,2.9,0,5.5,0,7.1h-5c-0.2-1-0.2-1.9-0.2-2.9c-0.7,1.9-2.4,3.4-5.8,3.4
			c-5.3,0-7.6-4.8-7.6-13.6c0-8.1,2.8-13.1,8.6-13.1c2.9,0,4.3,1.2,4.8,2.2v-11.7H188.7z M175.4,174.4c0,6.5,1.4,9.1,4,9.1
			c3.4,0,4.1-2.8,4.1-9.3s-0.7-8.6-4-8.6C177.1,165.8,175.4,167.8,175.4,174.4L175.4,174.4z"/>
		<path class="st2" d="M209.1,182.3c0,1.4,0.2,4.3,0.2,5.3h-4.6c-0.2-0.9-0.2-1.7-0.2-2.6c-1.2,2.1-3.4,3.3-5.8,3.1
			c-5,0-6.9-4-6.9-7.6c0-5.2,3.4-8.4,10.1-8.4c0.7,0,1.5,0,2.2,0v-3.1c0-1.7-0.2-3.6-3.1-3.6c-2.9,0-3.3,2.1-3.3,3.6h-5
			c0.2-3.8,1.9-7.7,8.4-7.7c5.3,0,8.1,2.4,8.1,7.4L209.1,182.3z M204.1,175.9c-0.7-0.2-1.4-0.2-2.1-0.2c-3.8,0-5.2,1.7-5.2,4.1
			c-0.2,1.9,1,3.4,2.9,3.8c0.2,0,0.3,0,0.3,0c3.3,0,4.1-2.4,4.1-6.7L204.1,175.9z"/>
	</g>
	<g>
		<ellipse class="st0" cx="137.9" cy="147.7" rx="15" ry="2.6"/>
		<path class="st3" d="M182.8,85.8c0-24.8-20.1-44.9-44.9-44.9S93,61,93,85.8c0,7.7,2.1,15.3,5.8,22l0,0c5.7,11.5,24.9,29.4,39.1,37
			c14.1-7.6,33.2-25.5,39.1-37l0,0C180.7,101.1,182.8,93.4,182.8,85.8z"/>
		<path class="st1" d="M177,107.8L177,107.8c12.2-21.5,4.8-48.9-16.7-61.1c-6.9-4-14.5-5.8-22.4-5.8v103.7
			C152,137.2,171.1,119.2,177,107.8z"/>
		<circle class="st0" cx="137.9" cy="85.8" r="39.7"/>
		<circle class="st1" cx="137.9" cy="85.8" r="34.1"/>
		<polygon class="st0" points="124.3,90.1 113.1,90.1 113.1,113.7 124.3,119.3 		"/>
		<polygon class="st0" points="139.6,90.1 131.7,98 151.5,117.8 161.3,111.9 		"/>
		<path class="st0" d="M132.1,58.4h23.4c1.7,0,3.1,1.4,3.1,3.1v23.4c0,10.5-8.4,18.9-18.9,18.9h-26.5l0,0V77.5
			C113.1,67,121.6,58.6,132.1,58.4z"/>
		<path class="st4" d="M143.9,84.1l-11-11c-0.9-0.9-0.9-2.1,0-2.9c0.3-0.3,1-0.7,1.5-0.7h11.4c0.9,0,1.5,0.7,1.5,1.5v11.4
			c0,1.2-0.9,2.1-2.1,2.1C145,84.8,144.3,84.6,143.9,84.1z"/>
	</g>
</g>
</svg>
