<?xml version="1.0" encoding="utf-8"?>
<!-- Generator: Adobe Illustrator 26.5.0, SVG Export Plug-In . SVG Version: 6.00 Build 0)  -->
<svg version="1.1" id="Camada_1" xmlns="http://www.w3.org/2000/svg" xmlns:xlink="http://www.w3.org/1999/xlink" x="0px" y="0px"
	 viewBox="0 0 276 276" style="enable-background:new 0 0 276 276;" xml:space="preserve">
<style type="text/css">
	.st0{fill:#EEE535;}
	.st1{fill:#FFFFFF;}
	.st2{fill:#EA5167;}
</style>
<g>
	<g>
		<path class="st0" d="M82.9,64.1v3.8h-20v16.9h16.9v3.8H62.9v20.9h-4.5V64.1H82.9z"/>
		<path class="st0" d="M114.6,109.4l-11.2-18.9h-8.5v18.9h-4.5V64.1H104c4.2-0.3,8.3,1,11.5,3.7c2.6,2.5,4.1,5.9,3.9,9.5
			c0.1,3-0.9,6-2.8,8.4c-2.1,2.5-5.1,4.1-8.3,4.5l11.7,19.3L114.6,109.4z M95,86.8h9.1c2.9,0.2,5.8-0.7,8-2.6
			c1.8-1.8,2.7-4.4,2.6-6.9c0.2-2.6-0.8-5.1-2.6-6.9c-2.3-1.8-5.2-2.7-8.2-2.4h-9.1L95,86.8z"/>
		<path class="st0" d="M213.7,109.4h-4.5l-25.1-38.2v38.2h-4.5V64.1h4.5l25.1,38.1V64.1h4.5V109.4z"/>
		<path class="st0" d="M250.6,64.1v3.8H238v41.6h-4.5V67.9h-12.7v-3.8H250.6z"/>
		<path class="st0" d="M148.8,63.3c-12.9,0-23.3,10.4-23.3,23.3s10.4,23.3,23.3,23.3c12.9,0,23.3-10.4,23.3-23.3
			S161.7,63.3,148.8,63.3z M148.8,105.5c-10.4,0-18.9-8.4-18.9-18.9c0-10.4,8.4-18.9,18.9-18.9c10.4,0,18.9,8.4,18.9,18.9l0,0
			C167.7,97,159.2,105.5,148.8,105.5z"/>
	</g>
	<path class="st1" d="M19.9,132.2c1.9-3.5,4.7-6.3,8.1-8.2c3.6-2,7.7-3,11.8-2.9c5-0.1,9.8,1.4,13.9,4.3c3.9,2.9,6.6,7,7.8,11.7
		H49.3c-0.8-1.8-2.2-3.3-3.9-4.3s-3.7-1.5-5.7-1.5c-3.2-0.1-6.2,1.2-8.3,3.6c-4.2,5.6-4.2,13.4,0,19.1c2.1,2.4,5.1,3.7,8.3,3.6
		c2,0,3.9-0.5,5.7-1.5c1.7-1,3-2.5,3.9-4.3h12.2c-1.1,4.7-3.9,8.8-7.8,11.6c-4,2.9-8.9,4.4-13.9,4.2c-4.1,0.1-8.2-0.9-11.8-2.9
		c-3.4-1.9-6.3-4.8-8.1-8.2C16,148.7,16,139.8,19.9,132.2L19.9,132.2z"/>
	<path class="st1" d="M175.8,121.6l-16.1,45.5h-13.9l-16.1-45.5h11.8l11.3,34.3l11.4-34.3C164.2,121.6,175.8,121.6,175.8,121.6z"/>
	<path class="st1" d="M191.5,130.5v9.2h14.8v8.5h-14.8v10.1h16.8v8.9h-27.9v-45.6h27.9v8.9H191.5z"/>
	<g>
		<path class="st1" d="M113.9,224.9l-9.5-17.2h-2.6v17.2H90.7v-45.5h18.6c3.2-0.1,6.3,0.5,9.2,1.9c2.4,1.1,4.3,2.9,5.7,5.2
			c1.3,2.2,1.9,4.7,1.9,7.3c0,2.9-0.9,5.7-2.6,8.1c-1.9,2.5-4.5,4.4-7.6,5.2l10.5,18.1L113.9,224.9z M101.8,199.9h6.9
			c1.7,0.1,3.3-0.4,4.6-1.5c1.1-1.1,1.6-2.7,1.5-4.2c0.1-1.5-0.5-3-1.5-4.1c-1.3-1.1-2.9-1.6-4.6-1.5h-6.9V199.9z"/>
		<path class="st1" d="M161.3,216.9h-17l-2.7,8H130l16.5-45.5h12.9l16.5,45.5h-11.7L161.3,216.9z M158.4,208.3l-5.6-16.7l-5.6,16.7
			H158.4z"/>
		<path class="st1" d="M207.8,193.8c-0.8-1.5-2-2.8-3.5-3.5c-1.7-0.8-3.5-1.3-5.4-1.2c-3.3-0.1-6.4,1.2-8.6,3.5
			c-2.2,2.6-3.4,6-3.2,9.4c-0.2,3.6,1,7.1,3.4,9.8c2.5,2.4,5.9,3.7,9.4,3.5c2.5,0.1,4.9-0.7,6.9-2.1c2-1.5,3.4-3.6,4.1-5.9h-14v-8.2
			H221v10.3c-0.9,2.8-2.3,5.5-4.2,7.8c-2.1,2.4-4.6,4.4-7.5,5.8c-3.2,1.5-6.8,2.3-10.3,2.2c-4.2,0.1-8.3-0.9-12-2.9
			c-3.5-1.9-6.3-4.7-8.2-8.2c-3.9-7.5-3.9-16.5,0-24c1.9-3.5,4.7-6.3,8.2-8.2c3.7-2,7.8-3,12-2.9c4.9-0.2,9.7,1.2,13.8,3.9
			c3.7,2.6,6.4,6.5,7.4,11L207.8,193.8z"/>
		<path class="st1" d="M238.1,188.3v9.2h14.8v8.5h-14.8v10.1h16.8v8.9H227v-45.6h27.9v8.9L238.1,188.3L238.1,188.3z"/>
	</g>
	<g>
		<path class="st0" d="M99.4,114v14.2c8.9,1.2,15.2,9.4,14.1,18.3c-1.2,8.9-9.4,15.2-18.3,14.1c-7.3-1-13.1-6.7-14.1-14.1H67
			c1.1,16.8,15.7,29.5,32.5,28.4s29.5-15.7,28.4-32.5C126.8,127.1,114.7,115,99.4,114z"/>
		<path class="st2" d="M67,142.1h14.1c1-7.3,6.7-13,14-13.9V114C80,115,68,127,67,142.1z"/>
	</g>
</g>
</svg>
